<svg id="katman_1" data-name="katman 1" xmlns="http://www.w3.org/2000/svg" viewBox="0 0 16 16"><defs><style>.cls-1{fill:#0fa3f4;}</style></defs><path class="cls-1" d="M3.8,10.64c-.07-.17-.16-.38-.28-.64s-.24-.54-.37-.84l-.43-.93L2.3,7.32C2.16,7,2,6.78,1.92,6.56s-.21-.4-.28-.52c-.07.83-.14,1.73-.18,2.69s-.1,1.94-.13,2.92h-1L.42,9.74c0-.64.08-1.27.13-1.89S.64,6.62.69,6,.8,4.89.87,4.36h.89c.19.31.39.68.61,1.1s.43.86.65,1.32.43.91.63,1.37S4,9,4.21,9.41c.17-.38.35-.8.56-1.26s.41-.92.63-1.37.43-.9.65-1.32.42-.79.61-1.1h.89q.36,3.52.54,7.29h-1c0-1-.08-2-.13-2.92S6.85,6.87,6.78,6c-.07.12-.17.3-.28.52s-.24.48-.38.76l-.42.91-.43.93c-.13.3-.26.58-.37.84s-.21.47-.28.64Z"/><path class="cls-1" d="M15.67,8a4.38,4.38,0,0,1-.29,1.65,3.06,3.06,0,0,1-.84,1.15,3.5,3.5,0,0,1-1.28.69,5.66,5.66,0,0,1-1.64.22c-.29,0-.62,0-1,0a5.14,5.14,0,0,1-1-.14V4.47a5.14,5.14,0,0,1,1-.14c.35,0,.68,0,1,0a5.66,5.66,0,0,1,1.64.22,3.5,3.5,0,0,1,1.28.69,3.06,3.06,0,0,1,.84,1.15A4.38,4.38,0,0,1,15.67,8Zm-4,2.82a2.88,2.88,0,0,0,2.16-.74A2.87,2.87,0,0,0,14.59,8a2.87,2.87,0,0,0-.72-2.08,2.88,2.88,0,0,0-2.16-.74H11l-.33,0v5.58l.33,0Z"/></svg>